<svg width="43" height="35" viewBox="0 0 43 35" fill="none" xmlns="http://www.w3.org/2000/svg">
<path d="M31.4583 6.0655V11.5625M31.4583 14.4792V20.3125M31.4583 23.2292V28.7262M1 5V13.75C3.47377 13.75 5.47917 15.3823 5.47917 17.3958C5.47917 19.4094 3.47377 21.0417 1 21.0417V29.7917H1.89583L7.34288 29.1583C12.0667 28.609 16.8324 28.3333 21.6042 28.3333C26.3759 28.3333 31.1417 28.609 35.8655 29.1583L41.3125 29.7917H42.2083V21.0417C39.7346 21.0417 37.7292 19.4094 37.7292 17.3958C37.7292 15.3823 39.7346 13.75 42.2083 13.75V5H41.3125L35.8655 5.63338C31.1417 6.18265 26.3759 6.45833 21.6042 6.45833C16.8324 6.45833 12.0667 6.18265 7.34286 5.63337L1.89583 5H1Z" stroke="#374957"/>
</svg>
